/* XPM */
static char *f7d40b26f3fe47f1d3fa45873adeb919ZqN0698bgqN4Xecy[] = {
/* columns rows colors chars-per-pixel */
"25 25 160 2 ",
"   c #35061E",
".  c #3D0C1F",
"X  c #0C0426",
"o  c #090829",
"O  c #0C0E29",
"+  c #160625",
"@  c #1B0524",
"#  c #1E0A25",
"$  c #12092A",
"%  c #0E1029",
"&  c #141227",
"*  c #141629",
"=  c #1B1529",
"-  c #1B1C2E",
";  c #1E1531",
":  c #1E1D35",
">  c #210423",
",  c #210824",
"<  c #290C24",
"1  c #350B21",
"2  c #2C182A",
"3  c #391023",
"4  c #1E232A",
"5  c #172535",
"6  c #1E2B30",
"7  c #192A39",
"8  c #1C3136",
"9  c #20252F",
"0  c #212D2C",
"q  c #23342D",
"w  c #243A2E",
"e  c #212234",
"r  c #212C33",
"t  c #21233B",
"y  c #242C3D",
"u  c #213034",
"i  c #243B32",
"p  c #27323E",
"a  c #28363F",
"s  c #283F39",
"d  c #450317",
"f  c #560F1B",
"g  c #4F121F",
"h  c #5F131C",
"j  c #5E181F",
"k  c #73020D",
"l  c #651219",
"z  c #691419",
"x  c #741B1C",
"c  c #7D221E",
"v  c #411425",
"b  c #4F1A23",
"n  c #581620",
"m  c #651E21",
"M  c #522529",
"N  c #482636",
"B  c #7C3424",
"V  c #2A4D36",
"C  c #284538",
"Z  c #2C5539",
"A  c #36503C",
"S  c #30603C",
"D  c #514A33",
"F  c #7F403F",
"G  c #252D41",
"H  c #273443",
"J  c #283641",
"K  c #2A3B43",
"L  c #293C48",
"P  c #2C4444",
"I  c #2D4B44",
"U  c #2B444A",
"Y  c #2C4C4D",
"T  c #2E544D",
"R  c #2F594C",
"E  c #315546",
"W  c #325A46",
"Q  c #325B49",
"!  c #2F5552",
"~  c #2F5854",
"^  c #315D53",
"/  c #336249",
"(  c #366B4B",
")  c #386E4A",
"_  c #39744D",
"`  c #3B7D4F",
"'  c #336452",
"]  c #356B52",
"[  c #377152",
"{  c #397651",
"}  c #3A7B51",
"|  c #554346",
" . c #614850",
".. c #8A1D17",
"X. c #831C19",
"o. c #951D15",
"O. c #8D231A",
"+. c #9C2217",
"@. c #962118",
"#. c #992C1D",
"$. c #A32215",
"%. c #A02519",
"&. c #A32B1B",
"*. c #AA2B1A",
"=. c #B22D19",
"-. c #AE321D",
";. c #B63019",
":. c #BE331A",
">. c #B03A1D",
",. c #8E2B20",
"<. c #9C3921",
"1. c #C3351A",
"2. c #CE391A",
"3. c #D03E1B",
"4. c #874126",
"5. c #99433A",
"6. c #BC4B24",
"7. c #BD5325",
"8. c #CB411E",
"9. c #D1451E",
"0. c #F96E1D",
"q. c #C74920",
"w. c #C84F24",
"e. c #D44B21",
"r. c #C25527",
"t. c #D55223",
"y. c #DA5A24",
"u. c #EA5B23",
"i. c #F35D21",
"p. c #E65730",
"a. c #ED6423",
"s. c #E46528",
"d. c #EC792E",
"f. c #FF7826",
"g. c #F47D2F",
"h. c #FF7C28",
"j. c #EB7B32",
"k. c #814A4A",
"l. c #A45F54",
"z. c #946744",
"x. c #AE6A41",
"c. c #B66756",
"v. c #916560",
"b. c #AA786C",
"n. c #B37667",
"m. c #C37C66",
"M. c #3D824E",
"N. c #3C8351",
"B. c #3E8A52",
"V. c #F9852D",
"C. c #FB8737",
"Z. c #FF8B32",
"A. c #F79346",
"S. c #FF9F42",
"D. c #FFB351",
"F. c #CC856D",
"G. c #D88D72",
"H. c #ED8A67",
"J. c #FFC65C",
"K. c #FFCF61",
/* pixels */
"J E N.M.) ~ ~ Y J J J J p K ) B._ ' ! ^ P G J J J ",
"W ( } M.} ] Y U E W I J K / _ M.` { ^ L I W W P p ",
"} ` ` ` N.} P P } B._ K E N.` ` ` B./ J / B.B.W J ",
"] { M.M.{ ' ( _ ` N.` _ ' ] ` B.` ] ' ) ` N.` { ) ",
"U T { { ^ U ' N.M.M.} { : e ' } [ Y Y [ ; C M.{ { ",
"J U ~ ^ U J U ' { M.( y k.N 7 ^ ! K H e b.| C ' ~ ",
"/ I H L K y G U ' ' T o l.m. .t L y $ = G.G.| p [ ",
"B.( P y J I P P U Y K 1 5.H.n.$ 7 2 v 2 F F.v.- ` ",
"} N._ K P ` B./ H 8 3 &.3.+.. @ X c p.c.2 X 6 N.` ",
"N.} ] / ( } B.` 7 M y.a.0.B > ..>.j.g.*., 8 / ` M.",
"{ ^ Y r ( ` ` 8 b q.h.Z.J.z.d 1.A.S.7.. Z Q Y ^ { ",
"' U p + 5 A D n -.i.h.Z.K.x.k 9.D.C.O.o R Y H U ^ ",
"K P W + # 3 X.3.y.r.6.a.V.r.#.t.g.u.X.+ y G y J U ",
"K Q B.+ f o.*.w.f.4.@ 1.t.V.d.%.:.1.x + y J K J p ",
"_ ` } + z =.3.y.s.<.  > &.a.s.:.=.$.l + a _ _ I y ",
"{ } M.+ c 2.1.e.e.&.x B c -.9.;.$.l < r / B.B.( E ",
"! ' ` + #.;.m =.8.+.O.u.c X.:.o.z < 7 { B.M.` ` } ",
"J U ' + #.,.< ..1.O.h :.o...@.z , 7 U ] { M.M.[ ' ",
"I U U + x q.w.l +.l # &.*.o.z @ 4 6 e r I { [ ' ' ",
"` W r = < 3 b l +.:.O.3 X.z , = 4 4 4 4 8 C ! ] ` ",
"` ` C 4 = * & 1 g c j X   2 6 0 9 q w w 0 u ] ` } ",
"` N.{ s i Z V & $ O % = & 6 V i 0 V S Z C I _ N.` ",
"` [ ^ _ ` ` { i q r r i w C i i V ` ` ` ` [ ^ ] } ",
"' T U ' { ` M.} { Y U / ] / U Y ] ` ` } } / U T ( ",
"~ P J Y ] } M.{ ^ K H ! ^ ! J L ^ _ M.` ] Y H U ~ "
};
