/* XPM */
static char *cca8eee24fbc450eaa988e72b132d2819dZn2ofjeBUeoV6S[] = {
/* columns rows colors chars-per-pixel */
"25 25 152 2 ",
"   c #06081F",
".  c #29051B",
"X  c #0C0224",
"o  c #0F0A28",
"O  c #170625",
"+  c #1B0D29",
"@  c #0D1926",
"#  c #09142F",
"$  c #13122B",
"%  c #181629",
"&  c #1D1C2D",
"*  c #1A1D31",
"=  c #261026",
"-  c #24192D",
";  c #28192B",
":  c #381D2C",
">  c #1E242A",
",  c #152534",
"<  c #1E2531",
"1  c #1D2D33",
"2  c #1D293D",
"3  c #20242E",
"4  c #212C2D",
"5  c #23332F",
"6  c #243A2E",
"7  c #202537",
"8  c #212A33",
"9  c #262D3E",
"0  c #233634",
"q  c #253B33",
"w  c #26323E",
"e  c #273D38",
"r  c #2A3A3C",
"t  c #3D3438",
"y  c #4D161E",
"u  c #53181D",
"i  c #5B1C1E",
"p  c #671F14",
"a  c #682219",
"s  c #451722",
"d  c #541C21",
"f  c #542225",
"g  c #5A2021",
"h  c #4B2834",
"j  c #4C3039",
"k  c #4E3A3D",
"l  c #5A3A3C",
"z  c #612020",
"x  c #6A2621",
"c  c #772F23",
"v  c #7B2D21",
"b  c #7B3124",
"n  c #264331",
"m  c #284632",
"M  c #294B33",
"N  c #25443D",
"B  c #29413C",
"V  c #2B4B3D",
"C  c #2F5A3A",
"Z  c #30613C",
"A  c #263343",
"S  c #283640",
"D  c #263C43",
"F  c #2A3B43",
"G  c #293C48",
"H  c #2C4444",
"J  c #2D4C44",
"K  c #2A444A",
"L  c #2D4C4D",
"P  c #2E5942",
"I  c #2F544E",
"U  c #315647",
"Y  c #325947",
"T  c #325C49",
"R  c #2C4D50",
"E  c #2E5552",
"W  c #2F5854",
"Q  c #315D53",
"!  c #336747",
"~  c #356B47",
"^  c #346349",
"/  c #366B4A",
"(  c #386E4A",
")  c #38744D",
"_  c #3B7D4F",
"`  c #336451",
"'  c #356B52",
"]  c #377153",
"[  c #397551",
"{  c #3A7B51",
"}  c #775148",
"|  c #832917",
" . c #93341D",
".. c #98381D",
"X. c #A23D1D",
"o. c #853423",
"O. c #913A23",
"+. c #AB431F",
"@. c #B0461D",
"#. c #914025",
"$. c #AF4F25",
"%. c #B44B22",
"&. c #AF5627",
"*. c #B05323",
"=. c #BC5425",
"-. c #BE632B",
";. c #CD681F",
":. c #C15626",
">. c #C35B27",
",. c #CC5E26",
"<. c #C35F28",
"1. c #CA6127",
"2. c #C66029",
"3. c #CC6629",
"4. c #CC6C2B",
"5. c #D36C2A",
"6. c #CF722D",
"7. c #D9772D",
"8. c #D4792F",
"9. c #E17C2A",
"0. c #814C46",
"q. c #965849",
"w. c #896C55",
"e. c #A77A5A",
"r. c #B67A59",
"t. c #3D824E",
"y. c #3C8350",
"u. c #3F8A52",
"i. c #DB802F",
"p. c #D88032",
"a. c #E2852E",
"s. c #E68A2F",
"d. c #EA8E2F",
"f. c #E79337",
"g. c #EB9434",
"h. c #E3913C",
"j. c #E99B3C",
"k. c #F3A53C",
"l. c #B99165",
"z. c #D1915B",
"x. c #FAB74B",
"c. c #C28560",
"v. c #CF8A62",
"b. c #DDA370",
"n. c #E7A36E",
"m. c #F1AF73",
"M. c #FAC856",
"N. c #FFC17B",
"B. c #FEC781",
"V. c #FFCA83",
"C. c #FFE28E",
"Z. c #FFED94",
/* pixels */
"S U t.t.' W W L F A S S A r ) u._ ` E E K 9 S S S ",
"Y / { y._ ' J K U Y J 9 F T ) t.{ [ Q K J Y Y H 9 ",
"{ t._ _ y.{ H H _ u.) H Y y.t._ _ y.^ F ! u.y.T F ",
"` [ t.t.[ ` ^ + O O O O H ' { t._ ' ` ( _ y.t.) ( ",
"K W [ [ Q G * y p a y i ; 2 ` { ' L I [ y.t.t.[ [ ",
"r K W Q A - d O.;.;.+. .i = w W E F F E ' t._ ' E ",
"^ J A A + g %.:.7.s.4.$.X.z X A G 9 9 A I ' ` ` ] ",
"y./ H O y ..>.6.<.%.=.6.5.b o 9 9 H J H K R W [ _ ",
"{ y.) O a @.3.a.3.4.f.4.,.%.x - 7 ^ t._ H F [ y._ ",
"y.{ ] O c ,.6.k.s.j.M.h.i.9.&.+ N _ u.y./ T ' { y.",
"[ Q R O c 2.8.j.a.h.M.x.g.9.-.f e ~ _ { t.] L T [ ",
"` K A O a %.4.4.=.<.s.k.p.:.%.+.s , t.y.] E F L Q ",
"G K Y O u +.:.:.<.4.7.d.i.6.<.| . , ' ' R A 9 S K ",
"r T y.V % i ..@.%.=.2.7.7.*.#.z.r.j , E K r F F 9 ",
") ) y._ J - y i d v @.:.1.@.O.m.V.c.h * 1 P ) J 9 ",
"{ _ t._ { J $ $ # : o.v O.O.o.q.b.N.v.l t t ~ / U ",
"E ` { t.' E / ! / B O O O O O X 0.n.B.C.C.e.O t.{ ",
"D K ' ' I G I J m m q 1 * & < < % w.Z.n.} r / ( ` ",
"J K K D 8 3 8 0 n n q q 5 4 4 <   l B.N.l @ / ` ` ",
"_ Y 8 3 > > > 4 0 0 q m M m 4 > % : q.l.k * r ' _ ",
"y.) m > > 6 6 5 1 5 M M M M n 5 > & O O % > V y.t.",
"{ y.{ B n C Z m > q M M M M M q 1 m Z C q e ] y.{ ",
"t.' W ) t._ _ C M q q M M M e q m C _ { _ ] W ] { ",
"' I G ` { _ _ _ ] L K ` ] ^ K J ] _ t._ [ ^ K I / ",
"E K r L ` { y.[ W G F I W E F G W ) t.t.' L A K E "
};
