/* XPM */
static char *ee55930179284c0bba00ce3416358a6dZ80BJnKp7l6pXUq9[] = {
/* columns rows colors chars-per-pixel */
"25 25 122 2 ",
"   c #20272C",
".  c #20292E",
"X  c #202C2F",
"o  c #382121",
"O  c #24362F",
"+  c #323821",
"@  c #202D30",
"#  c #212D30",
"$  c #252A3E",
"%  c #262E3D",
"&  c #213332",
"*  c #233533",
"=  c #263C31",
"-  c #253D33",
";  c #253D34",
":  c #243C35",
">  c #27313F",
",  c #27333F",
"<  c #274331",
"1  c #254133",
"2  c #264234",
"3  c #274534",
"4  c #284731",
"5  c #294B32",
"6  c #294E33",
"7  c #284A34",
"8  c #294C36",
"9  c #26423F",
"0  c #294A3B",
"q  c #294A3D",
"w  c #2E5B3A",
"e  c #273544",
"r  c #283440",
"t  c #283540",
"y  c #293842",
"u  c #2A3E42",
"i  c #293944",
"p  c #293D45",
"a  c #293C48",
"s  c #2B4143",
"d  c #2C4141",
"f  c #2C4541",
"g  c #2B4247",
"h  c #2C4647",
"j  c #2D4943",
"k  c #2E4A44",
"l  c #2E4C47",
"z  c #2E4E47",
"x  c #2A414B",
"c  c #2B4549",
"v  c #2B474A",
"b  c #2A444D",
"n  c #2C4A4B",
"m  c #2B494F",
"M  c #2C4A4E",
"N  c #2D4E4E",
"B  c #2F534E",
"V  c #2F544C",
"C  c #2F564F",
"Z  c #305247",
"A  c #315647",
"S  c #325946",
"D  c #335E46",
"F  c #30534A",
"G  c #325B48",
"H  c #335F49",
"J  c #315B4F",
"K  c #2D4E50",
"L  c #2E5452",
"P  c #2F5653",
"I  c #2E5555",
"U  c #2E5755",
"Y  c #2F5853",
"T  c #2F5955",
"R  c #305B52",
"E  c #315F52",
"W  c #315E54",
"Q  c #346349",
"!  c #346548",
"~  c #36684A",
"^  c #366A4A",
"/  c #376F4C",
"(  c #386E4A",
")  c #38714C",
"_  c #3A774D",
"`  c #3B7B4D",
"'  c #3A7B4F",
"]  c #3B7E4F",
"[  c #3C7E4E",
"{  c #336551",
"}  c #346451",
"|  c #336655",
" . c #356B53",
".. c #376F50",
"X. c #346954",
"o. c #356B56",
"O. c #377252",
"+. c #377555",
"@. c #397451",
"#. c #387551",
"$. c #387552",
"%. c #3A7B51",
"&. c #3B7F50",
"*. c #3C7E50",
"=. c #397854",
"-. c #C43F31",
";. c #A04345",
":. c #BC4D4F",
">. c #4B9A27",
",. c #3C814E",
"<. c #3C814F",
"1. c #3D844F",
"2. c #3C8250",
"3. c #3D8651",
"4. c #3E8852",
"5. c #3F8B52",
"6. c #408F53",
"7. c #88A043",
"8. c #9FBC4D",
"9. c #D8B78F",
"0. c #FFD7A8",
"q. c white",
/* pixels */
"t A 2.1...P T N t t t t % u / 3.%.} U P x > t r r ",
"S ^ &.+ + + + + + + + + + + + + + =.J a z S S d r ",
"&.&.+ + -.+ 7.7.7.7.8.8.8.8.8.8.8.+ ! t Q 6.3.S t ",
"| O.+ -.+ + 7.7.7.7.7.8.8.7.7.7.8.+ } ( ` ,.] ` ) ",
"x C $.+ -.+ 7.q.+ q.7.8.+ 8.8.8.+ + F O.2.,.,.%.$.",
", c + -.+ + 7.q.+ q.7.8.8.8.8.8.8.+ p I $.,.] } P ",
"! z + + + + 7.q.q.q.7.8.8.8.8.8.8.+ $ e P  .E } ..",
"3.^ d % + + 7.7.7.7.7.8.8.8.8.8.8.+ k f b b R $.2.",
"+ + + + 7.+ + 7.7.7.7.+ + + + + + Q 3.%.f u _ 2.] ",
"+ 8.8.7.7.7.9.0.0.0.0.+ 1.] +.^ ! ` 3.2.( H  .%.] ",
"$.+ 7.7.7.+ 9.9.o o o o o o o o o o o o o o K E $.",
"E c + 7.8.8.+ o :.:.:.:.:.:.:.;.;.;.;.o >.o o n E ",
"a h + 7.8.8.+ o :.;.;.;.:.:.;.;.;.;.;.o o >.o y x ",
"u = 6 + 7.8.+ o o :.:.:.o :.;.q.o q.;.o >.o u > > ",
"4 4 5 + + + + o :.:.:.:.:.:.;.q.o q.;.o o >.o j > ",
"=.6 5 5 7 3 O o :.:.:.:.:.:.;.q.o q.;.o o o o ( A ",
"I } &.,.0 & 2 o :.:.:.:.:.:.;.;.;.;.;.o o ] ] ] ] ",
"e n | o.B p P o o o o o o o ;.;.;.;.o o ;.o o o o ",
"f h b b p % e B / =.o.W V o 0.0.0.0.9.;.;.;.:.:.o ",
"&.G r r r r , p P U E _ ,._ o o 9.9.9.o ;.;.;.o ` ",
"2._ D > t ! ^ F p F %.*.w 4 < o :.:.o :.:.;.o *.] ",
"*.2.%.z A 3.6.) f = 5 5 5 6 6 o :.;.o :.:.;.o 7 ] ",
"] / E ( ] ] ] ] 5 : : 5 6 5 : : o o o :.;.o : 2 5 ",
"} B x E %.] ] %.o.* # : 2 = # & 2 7 o o o o # * o.",
"U h t K | &.] $.R p t P 9 &   . : 2 6 4 q n t c U "
};
