/* XPM */
static char *_c99a9f163ca4e7cba8debf81990dca4RrJvl4pvdIqAaGMa[] = {
/* columns rows colors chars-per-pixel */
"25 25 73 1 ",
"  c #1F252B",
". c #20262D",
"X c #212C2D",
"o c #382121",
"O c #23332E",
"+ c #253C2F",
"@ c #262D3E",
"# c #233634",
"$ c #253C32",
"% c #27313F",
"& c #253C3A",
"* c #29393F",
"= c #274331",
"- c #284532",
"; c #294B33",
": c #29473B",
"> c #2C5536",
", c #2E5739",
"< c #273443",
"1 c #283540",
"2 c #293C43",
"3 c #293E49",
"4 c #2C4445",
"5 c #2E4C45",
"6 c #2A444A",
"7 c #2C4C4D",
"8 c #2F544E",
"9 c #315546",
"0 c #325A46",
"q c #325C49",
"w c #2C4D50",
"e c #2E5452",
"r c #2F5954",
"t c #315D53",
"y c #34634A",
"u c #366B4B",
"i c #386E4A",
"p c #39744D",
"a c #3B7D4F",
"s c #336451",
"d c #356951",
"f c #356B53",
"g c #366C51",
"h c #376F50",
"j c #366E51",
"k c #336955",
"l c #346855",
"z c #377052",
"x c #367055",
"c c #387250",
"v c #387352",
"b c #387452",
"n c #387552",
"m c #3A7A50",
"M c #3B7E50",
"N c #3B7E51",
"B c #397854",
"V c #A04345",
"C c #BC4D4F",
"Z c #4B9A27",
"A c #3B804F",
"S c #3C814F",
"D c #3E854D",
"F c #3C8050",
"G c #3C8250",
"H c #3D8751",
"J c #3E8850",
"K c #3F8B52",
"L c #3F8C52",
"P c #3F8E53",
"I c #D8B78F",
"U c #FFD7A8",
"Y c white",
/* pixels */
"19SSget71%*%@2pDasee4@*%1",
"0uFSmg769q5%2yaSant67004@",
"MMaaSa44aPp29FaaaFy*yLDq2",
"lvSDndupSSMpglaDagspaAFpi",
"68nntoooooooooooo78BFAMMn",
"16rtoCCCCCCCVVVVoo2ezFFse",
"y5<2oCVVVCCVVVVVoZo<ektug",
"Hu4@ooCCCoCVYoYVoZo467tzS",
"MFp2oCCCCCCVYoYVoooa42nHF",
"FagyoCCCCCCVYoYoZoJJuqgMA",
"nq7zoCCCCCCVVVVoZoaaFz7qn",
"r7<7oooooCVVVVVoooDFxe27t",
"350ydsxt3oCCCCVVoogl7<@26",
"20HJpte72oUUUUIVoywr4*2<%",
"ppFMFn42uoUUUUIVooo<9pp5@",
"BMFFMn90FoUUUUIVCCo9pLJu9",
"esMagegFMoCIICVVVoomFMaMF",
"<7kk82exMoCCCCCVoo6lmDDgs",
"45673%<&=oCVooCVo<@6smzsr",
"F0<%   X##oVo=oVo .17reza",
"Aa0  +=O #;oo;=ooO=+23gAa",
"aFa5$;>=X$;;;;;$O=>H95nFa",
"AgrzAaa,-=$;;;$:aaaMazrga",
"s86smaamx76szs67zmaMay68d",
"r4<7kaDnr22ere22rnDak7<4r"
};
