/* XPM */
static char *c9968d65a8b44f629461177acb7b8078UVrKosBdviyXbxtu[] = {
/* columns rows colors chars-per-pixel */
"25 25 72 1 ",
"  c #1F242B",
". c #20262D",
"X c #202B2D",
"o c #23332E",
"O c #253C2F",
"+ c #323821",
"@ c #262D3E",
"# c #233633",
"$ c #253C32",
"% c #27323E",
"& c #28353F",
"* c #29393F",
"= c #274331",
"- c #294C33",
"; c #2B5235",
": c #2C5538",
"> c #273443",
", c #283641",
"< c #293C43",
"1 c #293E48",
"2 c #2C4445",
"3 c #2E4C45",
"4 c #2B444A",
"5 c #2C4B4D",
"6 c #2F544E",
"7 c #315546",
"8 c #325A46",
"9 c #325C4A",
"0 c #2C4D50",
"q c #2E5452",
"w c #2F5954",
"e c #315D53",
"r c #34634A",
"t c #366B4B",
"y c #386E4A",
"u c #39744D",
"i c #3B7D4F",
"p c #336451",
"a c #346852",
"s c #366C51",
"d c #376F50",
"f c #366F51",
"g c #366E53",
"h c #336955",
"j c #346855",
"k c #346A55",
"l c #356C54",
"z c #377151",
"x c #377153",
"c c #377455",
"v c #387250",
"b c #387352",
"n c #387551",
"m c #387452",
"M c #3A7A50",
"N c #3B7F50",
"B c #397854",
"V c #C43F31",
"C c #3B804F",
"Z c #3C814F",
"A c #3E854D",
"S c #3E864D",
"D c #3C8151",
"F c #3C8251",
"G c #3D8551",
"H c #3F8B52",
"J c #3F8E53",
"K c #88A043",
"L c #9FBC4D",
"P c #D8B78F",
"I c #FFD7A8",
"U c white",
/* pixels */
",7ZZsqe5,&,&@<uAipqq2>&&&",
"8tNZMs54783@<riZime13782@",
"NNiiAM32ZJu<7FiiiFr,rHG9,",
"jbZAmaruDDiuahiAisayiZZuu",
"46mme5++++++++++++6BFZFum",
",4we4+LLLLLLLKKKK++qbFiae",
"r3><,+LKKKLLKKKKK+V+6jess",
"Gt2@,++LLL+LKU+UK+V+45emi",
"NDi,2+LLLLLLKU+UK+++2<uFi",
"iNlrt+LLLLLLKUUU+V+Dtrzmi",
"mr5sG+LLLLLLKKKK+V+NZz5pm",
"w4>5l+++++LKKKKK+++Gzq,5p",
"128raasp+LLLLKK++ajs5>@,4",
"<9GJmeq4+IIIIPK+Npq04*<,@",
"tiFFFu2<+IIIIPK+++9%7uu3@",
"miZZim78+IIIIPKLL+r7uJHt7",
"qpDisqsF+LPPLKKK++eiZNiNN",
">5jh6<qc+LLLLLK++44jMAZsp",
"32451@>q+LK++LK+#>@4amzae",
"i8>%,.  #+K+-+K+.  .5wqsi",
"ii8%.O=oX#++--++ o=O.<zNF",
"iNi38;;= $-----$ =;;73mNN",
"iswziiii:$$---$$:GiiizesN",
"a64piiiDc54pzp45zNZiB946t",
"q4>5hZAnw<&qeq<1wmZil5>4q"
};
