/* XPM */
static char *_8c7f47c28e44bddf27adf7ad28d04d1WyIWY9xNbApMuZSA[] = {
/* columns rows colors chars-per-pixel */
"25 25 73 1 ",
"  c #1F242B",
". c #20262D",
"X c #212B2D",
"o c #23332E",
"O c #253C2F",
"+ c #323821",
"@ c #262D3E",
"# c #233634",
"$ c #253C32",
"% c #27313F",
"& c #28353F",
"* c #29393F",
"= c #274331",
"- c #294C33",
"; c #2B4E3B",
": c #2B5235",
"> c #2C5538",
", c #273443",
"< c #283640",
"1 c #2A3C43",
"2 c #293E48",
"3 c #2C4445",
"4 c #2E4C45",
"5 c #2B444A",
"6 c #2C4B4D",
"7 c #2E544E",
"8 c #315546",
"9 c #325A47",
"0 c #325C4A",
"q c #2C4D50",
"w c #2E5452",
"e c #2F5954",
"r c #315D53",
"t c #34634A",
"y c #366B4B",
"u c #386E4A",
"i c #39744D",
"p c #3B7D4F",
"a c #336451",
"s c #356951",
"d c #376F50",
"f c #366F51",
"g c #336955",
"h c #346855",
"j c #346A55",
"k c #356C54",
"l c #356E54",
"z c #377052",
"x c #367055",
"c c #377455",
"v c #387250",
"b c #387551",
"n c #387452",
"m c #3A7A50",
"M c #3A7A52",
"N c #3B7E50",
"B c #3B7F50",
"V c #397854",
"C c #C43F31",
"Z c #3B804F",
"A c #3C814F",
"S c #3D844F",
"D c #3E884F",
"F c #3C8250",
"G c #3D8250",
"H c #3D8751",
"J c #3E8850",
"K c #3F8E53",
"L c #88A043",
"P c #9FBC4D",
"I c #D8B78F",
"U c #FFD7A8",
"Y c white",
/* pixels */
"<8ASdwr6<&&&@1uDprww5%*&&",
"9yNAms65894&1tiANn056993@",
"NNppGp33NKi18JAppJ01tDH01",
"hvASihyiNGNighpSpshupZAiu",
"57nna5h++++++++++++mAAGnv",
"<5er5<++LLLLPPPPPPP+vZpyw",
"t4,1,+C+LLLLLPPLLLP+7hrhd",
"Hy3@<+C+LY+YLP+PPP++5qrvG",
"NFi13+++LY+YLPPPPPP+31nHp",
"ZmltuA+C+YYYLPPPPPP+ythmA",
"n06zGp+C+LLLLPPPPPP+Gvq0n",
"e6,6lZ+++LLLLLP+++++lw16r",
"249thhza++LLPPPP+ahl7,@&5",
"10HJvrw5*+LIUUUU+aww311&%",
"upFNGi3+++LIUUUU+G9,8ii4@",
"VmAZNv8+PPLIUUUU+Nt8iJSi8",
"waNpswz++LLLPIIP+rrFApppp",
",6hg71wc++LPPPPP+35amSSda",
"43562@,w;+LP++LP+,@5anzhr",
"p9,%<  X#+L+-+L+  ..6rwsp",
"Ai0%X$Oo ++--++o o=OX1spA",
"ZAp48::=X$-----$X=::84iGp",
"AzrzppZp>$$=--$$>ppZpuezp",
"a75ampppx75azh56zNpNVa57s",
"w5*6gpZnr11wew<1enZpg6<5e"
};
