/* XPM */
static char *cc0ae1ae86f54a0dca3816f2feb9518dQ9TblsxlMVUx9TXe[] = {
/* columns rows colors chars-per-pixel */
"25 25 117 2 ",
"   c #1E222A",
".  c #20272C",
"X  c #20292E",
"o  c #202C2F",
"O  c #382121",
"+  c #22302D",
"@  c #23342D",
"#  c #323821",
"$  c #212D30",
"%  c #252B3D",
"&  c #262E3D",
"*  c #213332",
"=  c #233533",
"-  c #253D33",
";  c #233A35",
":  c #243A34",
">  c #253E34",
",  c #27313E",
"<  c #28323F",
"1  c #28353F",
"2  c #274331",
"3  c #254133",
"4  c #264335",
"5  c #274435",
"6  c #284732",
"7  c #284933",
"8  c #2A4D32",
"9  c #294B34",
"0  c #294A3D",
"q  c #2A5036",
"w  c #2E593A",
"e  c #2E5B3A",
"r  c #252C40",
"t  c #262F40",
"y  c #273444",
"u  c #283340",
"i  c #283540",
"p  c #283743",
"a  c #2A3B41",
"s  c #2A3E42",
"d  c #293C46",
"f  c #293C47",
"g  c #2B4143",
"h  c #2C4141",
"j  c #2D4643",
"k  c #2A4045",
"l  c #2B4347",
"z  c #2C4747",
"x  c #2D4943",
"c  c #2D4944",
"v  c #2E4E47",
"b  c #2A414B",
"n  c #2A424A",
"m  c #2B4549",
"M  c #2B464E",
"N  c #2C4A4B",
"B  c #2C4A4E",
"V  c #2D4E4E",
"C  c #2F5146",
"Z  c #2E534D",
"A  c #2F574E",
"S  c #315647",
"D  c #325946",
"F  c #30534A",
"G  c #335C48",
"H  c #2B4B50",
"J  c #2E5350",
"K  c #2F5653",
"L  c #2E5555",
"P  c #2F5853",
"I  c #2F5854",
"U  c #305A54",
"Y  c #305B56",
"T  c #305D54",
"R  c #346247",
"E  c #346449",
"W  c #34644E",
"Q  c #366A4A",
"!  c #376D4A",
"~  c #35684E",
"^  c #376F4C",
"/  c #38724B",
"(  c #38714F",
")  c #38754F",
"_  c #3A794D",
"`  c #3B7B4F",
"'  c #3B7D4F",
"]  c #3C7E4F",
"[  c #326152",
"{  c #336552",
"}  c #336655",
"|  c #366B51",
" . c #356D51",
".. c #346855",
"X. c #356E54",
"o. c #377051",
"O. c #377252",
"+. c #377354",
"@. c #387552",
"#. c #397953",
"$. c #3B7F50",
"%. c #397854",
"&. c #C43F31",
"*. c #A04345",
"=. c #BC4D4F",
"-. c #4B9A27",
";. c #3C804F",
":. c #3D844F",
">. c #3C8250",
",. c #3D8651",
"<. c #3E8852",
"1. c #408F53",
"2. c #88A043",
"3. c #9FBC4D",
"4. c #D8B78F",
"5. c #FFD7A8",
"6. c white",
/* pixels */
"i S >.:.( K Y V 1 < i i & s ^ <._ [ L P l & p , 1 ",
"D Q $.;.#.| N l # # # # # # # # # # # # # # S l , ",
"' ] ' ' >.' j # 3.3.3.3.3.3.3.2.2.2.2.# &.# # G s ",
"} O.:.:.@.} W # 3.2.2.2.3.3.2.2.2.2.2.# # &.# _ ! ",
"n A @.#.G M } # # 3.3.3.# 3.2.6.# 6.2.# &.# ;.#.@.",
"i m I Y N y m # 3.3.3.3.3.3.2.6.# 6.2.# # &.# | K ",
"E v y f i & r # 3.3.3.3.3.3.2.6.6.6.2.# # # # W ^ ",
",.Q h & i c j # 3.3.3.3.3.3.2.2.2.2.2.# # B T ( $.",
"] ;.) a j _ ,.E # # # # # # 2.2.2.2.# # 2.# # # # ",
";.#.X.E ! >.,._ R W +.$.:.# 5.5.5.5.4.2.2.2.3.3.# ",
"#.G H O O O O O O O O O O O O O O 4.4.# 2.2.2.# @.",
"Y B O O -.O *.*.*.*.=.=.=.=.=.=.=.O # 3.3.2.# N T ",
"f j O -.O O *.*.*.*.*.=.=.*.*.*.=.O # 3.3.2.# 1 m ",
"s G ,.O -.O *.6.O 6.*.=.O =.=.=.O O # 3.2.# o o , ",
"/ @.O -.O O *.6.O 6.*.=.=.=.=.=.=.O # # # # 3 +   ",
"%.>.O O O O *.6.O 6.*.=.=.=.=.=.=.O - @ 6 9 8 7 S ",
"J { ' ' O O *.*.*.*.*.=.=.=.=.=.=.O : 6 w ] ] ' ' ",
"O O O O *.O O *.*.*.*.O O O O O O O m ..%.:.;.O.[ ",
"O =.=.*.*.*.4.5.5.5.5.O F j m M M u t n { @.o.{ [ ",
"' O *.*.*.O 4.4.4.O O ) :.) h & 1 i < u N L L / ' ",
";.#.O *.=.=.O =.=.O 9 7 w $.^ z , C Q R l s | >.;.",
"' q O *.=.=.O *.=.O 9 9 8 9 9 3 x @.<.,.S x @.$.' ",
"8 3 4 O *.=.O O O > ; 9 8 7 5 3 7 ' ' ' ' ^ T | ' ",
"{ ;   O O O O 7 3 * $ > 3 -   * O._ ;.' %.W n Z { ",
"P m 1 N 0 7 8 5 ;   o * h A p d U O.:.' | B p z K "
};
