/* XPM */
static char *_73400187d86437dade3b7507c57fb4atNQnpzx8rDm54v6b[] = {
/* columns rows colors chars-per-pixel */
"25 25 69 1 ",
"  c #262D3E",
". c #27313F",
"X c #28343F",
"o c #29393F",
"O c #252D40",
"+ c #273444",
"@ c #283541",
"# c #2A3C43",
"$ c #293E49",
"% c #2C4444",
"& c #2E4B44",
"* c #2B444A",
"= c #2C4C4D",
"- c #2F5146",
"; c #2F544E",
": c #315546",
"> c #325A46",
", c #30534A",
"< c #325C49",
"1 c #2C4D50",
"2 c #2E5452",
"3 c #2F5954",
"4 c #315C53",
"5 c #346247",
"6 c #34634A",
"7 c #366B4B",
"8 c #386E4A",
"9 c #39744D",
"0 c #3B7A4D",
"q c #3B7B4F",
"w c #3B7D4F",
"e c #3C7E4F",
"r c #326252",
"t c #336552",
"y c #346652",
"u c #326255",
"i c #336655",
"p c #366B51",
"a c #346852",
"s c #356B53",
"d c #336955",
"f c #356C54",
"g c #356E54",
"h c #326558",
"j c #377151",
"k c #367055",
"l c #377354",
"z c #377555",
"x c #387451",
"c c #397650",
"v c #397750",
"b c #3A7A50",
"n c #397853",
"m c #397A53",
"M c #3B7E50",
"N c #3B804F",
"B c #3C814F",
"V c #3D844F",
"C c #3E884F",
"Z c #3B8052",
"A c #3B8053",
"S c #3C8150",
"D c #3C8350",
"F c #3D8451",
"G c #3E8850",
"H c #3E8852",
"J c #3F8C52",
"K c #3F8E53",
"L c #408F53",
/* pixels */
"@:BV923=@Xo@ #9Gmr22*@@@@",
">7MBnp=*:>&X@5qSM9<*&>>% ",
"wewwBw&%wK9#:VwwwF5@5LF<@",
"ixBVxu79BSM9ddwVApi7nBB99",
"*;zn4*yAwBAn;*6n7=;mSBNnx",
"@*34*o*rwVx4*o132+#2jBw72",
"6&+#@ O*ttrp8<#+#+ +;pudp",
"G7% @&&%*2pwKS:@ %&%*13xB",
"wAx@%wF6+>FwwwB>X6Fw%#9Sw",
"Nnj67SCw<7zMVNzy6wGF75gmB",
"w4=jVweNw41jqx=4wSeMVp=5n",
"r*+=pNVxu*#4i3##4xVMk2@=4",
"#&>6yyjr*  $$$&6yypg=+ @*",
"#<GF922=@#@@ %9LMy22*o%@.",
"9qANAw%#8q5 &wwSeB<.,q9& ",
"nnBBAx:<SGq><nSBBn5:9CC7:",
";tMwp2pAwwwAy2xBq34weeeew",
"#*dd;#2zNCwp*+4kr**inVVjr",
"&%*1# +;jnpt,%***+ *tnjt4",
"q>+.+o+#224nF9% oXXX=327w",
"N0<+@57,@,wMFM9% -75**7wA",
"NAq&>FK9%<MMBMB5&9KB:%9wM",
"Np39wwwenprmVerywMwNwj3jM",
"7;*6nwwqx=*tk5*=jqwwn6*;7",
"2*+=dwV94##232+$3xNwd=.*3"
};
