/* XPM */
static char *_3c61fc8e2134fc7f16b86a351ad6bf2e3evRWkWvE6y73xp[] = {
/* columns rows colors chars-per-pixel */
"25 25 100 2 ",
"   c #262E3E",
".  c #27313F",
"X  c #28353F",
"o  c #24443E",
"O  c #262D41",
"+  c #273442",
"@  c #283541",
"#  c #273845",
"$  c #293B42",
"%  c #2C354C",
"&  c #2B3C4C",
"*  c #2D3754",
"=  c #2F3A52",
"-  c #303A53",
";  c #363F60",
":  c #343E6A",
">  c #2B4345",
",  c #2D4B45",
"<  c #2B434B",
"1  c #2D4B4C",
"2  c #2C5246",
"3  c #2E534C",
"4  c #315647",
"5  c #325A47",
"6  c #31524B",
"7  c #335B4A",
"8  c #324256",
"9  c #334B52",
"0  c #36415B",
"q  c #39445B",
"w  c #2E5552",
"e  c #2F5954",
"r  c #3C5657",
"t  c #315D53",
"y  c #34624A",
"u  c #366A4B",
"i  c #39744D",
"p  c #3B7D4F",
"a  c #336452",
"s  c #356B52",
"d  c #377152",
"f  c #397551",
"g  c #3A7B51",
"h  c #3A4363",
"j  c #3E4C63",
"k  c #37416B",
"l  c #3C456D",
"z  c #3E4671",
"x  c #3F4872",
"c  c #424D61",
"v  c #434E68",
"b  c #4A5469",
"n  c #4C586B",
"m  c #414A75",
"M  c #444E79",
"N  c #4B5374",
"B  c #4B537C",
"V  c #4E5878",
"C  c #525A7D",
"Z  c #3D824F",
"A  c #3C8350",
"S  c #3F8B52",
"D  c #408E53",
"F  c #545C83",
"G  c #555D88",
"H  c #5A6287",
"J  c #5A628C",
"K  c #5E6692",
"L  c #6D748D",
"P  c #646B95",
"I  c #676E98",
"U  c #686F99",
"Y  c #6B729C",
"T  c #70769E",
"R  c #747A9C",
"E  c #6E75A1",
"W  c #7076A2",
"Q  c #737AA5",
"!  c #7E84A8",
"~  c #8489A8",
"^  c #858AAA",
"/  c #9498B3",
"(  c #9498B7",
")  c #979CB9",
"_  c #9B9FBD",
"`  c #9CA1BB",
"'  c #9DA2BE",
"]  c #A1A5C1",
"[  c #A7ABC4",
"{  c #A9ACC6",
"}  c #A8ACC8",
"|  c #ABAEC9",
" . c #ACAFC9",
".. c #AEB2CB",
"X. c #ADB0CC",
"o. c #B0B3CC",
"O. c #B4B7D1",
"+. c #B5B7D1",
"@. c #B5B9D4",
"#. c #BABDD6",
/* pixels */
"@ 4 Z Z d w t 1 @ @ X @ . $ i A p t w e & . X @ . ",
"5 u g Z f s 1 > 6 5 , . $ y i Z g f 7 < , 5 5 >   ",
"g Z p p A p , > p S i $ , & & % = % 1 $ y S Z 5 $ ",
"a f Z Z f a u i u , , o 9 L L L L L n 4 p Z A i i ",
"< w d f t 1 a s r b c q H { ..[ o.@.R & y p Z i d ",
"@ , e t < @ & < L [ / / `  .} } X.+.^ k & 7 g s w ",
"y 2 + $ @ O % N Q ] +.#.o.] ' o.} ! F z * 1 a a s ",
"A u >   @ @ 0 P E R ( ) _ } ....^ B : z * & e f D ",
"g A i $ > , h P E P Y Y ! ] o.~ B : z l - + f A p ",
"Z g s 7 6 c H U Y U P K Y ! R C : k M l - , s g Z ",
"g 7 1 t & C Q E U P J P U K z : m m m l 0 9 < 7 p ",
"a < + 1 & V Y E Y J M J W U B z z z m m m ; * 1 t ",
"& , , 9 V P Y Y I P J P Y U B k z m m m m h % @ < ",
"$ 5 2 0 U Q Y P I Y T Y Y U G M z m m m m h % @   ",
"i p 3 q P Y I I I I U I U P E J m k m m m ; % ,   ",
"f - v P W G B P Y P M M G Y W J m z m m M h % u 4 ",
"w < v F F F G U Y K B k M Y T J z z x M l 0 w p g ",
"+ 1 w & % b U W Y Y I B B I E J m z M l < 7 p s a ",
"> > 1 & @ % N U E I Y P K I Y J z z l = 6 d d a t ",
"g 7   @ @ O % N I Q E Y Y I Y K M k = @ 1 t w s g ",
"A i 5 . $ y 7 & N I P I Y E W K l % 3 y $ & u g Z ",
"p A p , 4 A D y = 0 0 H W Y Q F - 2 S A 4 , f Z p ",
"Z s e i p p Z p u > < j C N C j 5 g p Z p d e d p ",
"s 3 < a g p p p d 1 > 8 % % % < s g p g g y < 3 s ",
"w < X 1 s g Z f e # $ w e w $ # t d Z g s 1 @ < w "
};
